<svg width="8" height="14" viewBox="0 0 8 14" fill="none" xmlns="http://www.w3.org/2000/svg">
<path d="M6.98403 6.59922L7.43061 7.0458L1.27454 13.2031C1.15579 13.3207 0.995412 13.3867 0.828278 13.3867C0.661144 13.3867 0.500767 13.3207 0.382017 13.2031C0.323156 13.1446 0.276446 13.075 0.244572 12.9984C0.212698 12.9217 0.196289 12.8396 0.196289 12.7566C0.196289 12.6736 0.212698 12.5914 0.244572 12.5147C0.276446 12.4381 0.323156 12.3685 0.382017 12.31L5.64367 7.04706L0.382017 1.7873C0.323176 1.72883 0.276479 1.6593 0.244613 1.58271C0.212748 1.50613 0.196343 1.42399 0.196343 1.34104C0.196343 1.25809 0.212748 1.17595 0.244613 1.09937C0.276479 1.02278 0.323176 0.95325 0.382017 0.894779C0.628361 0.648436 1.03135 0.650962 1.27454 0.894148L6.95814 6.57459L6.98403 6.59922Z" fill="#3D3D3D"/>
</svg>
