<svg width="8" height="14" viewBox="0 0 8 14" fill="none" xmlns="http://www.w3.org/2000/svg">
<path d="M6.97134 7.55508L7.41791 7.1085L1.26184 0.951165C1.14309 0.833555 0.982716 0.767578 0.815583 0.767578C0.648449 0.767578 0.488072 0.833555 0.369321 0.951165C0.310461 1.00969 0.26375 1.07927 0.231876 1.15591C0.200002 1.23255 0.183594 1.31474 0.183594 1.39774C0.183594 1.48075 0.200002 1.56293 0.231876 1.63957C0.26375 1.71621 0.310461 1.7858 0.369321 1.84432L5.63097 7.10724L0.369321 12.367C0.31048 12.4255 0.263783 12.495 0.231918 12.5716C0.200052 12.6482 0.183648 12.7303 0.183648 12.8133C0.183648 12.8962 0.200052 12.9783 0.231918 13.0549C0.263783 13.1315 0.31048 13.201 0.369321 13.2595C0.615665 13.5059 1.01866 13.5033 1.26184 13.2601L6.94544 7.57971L6.97134 7.55508Z" fill="#8A9FBF"/>
</svg>
