<svg width="36" height="20" viewBox="0 0 36 20" fill="none" xmlns="http://www.w3.org/2000/svg">
<path d="M3.27273 0C1.45636 0 0 1.48333 0 3.33333V15H3.27273C3.27273 16.3261 3.78993 17.5979 4.71057 18.5355C5.6312 19.4732 6.87985 20 8.18182 20C9.48379 20 10.7324 19.4732 11.6531 18.5355C12.5737 17.5979 13.0909 16.3261 13.0909 15H22.9091C22.9091 16.3261 23.4263 17.5979 24.3469 18.5355C25.2676 19.4732 26.5162 20 27.8182 20C29.1202 20 30.3688 19.4732 31.2894 18.5355C32.2101 17.5979 32.7273 16.3261 32.7273 15H36V3.33333C36 1.48333 34.5436 0 32.7273 0H3.27273ZM2.45455 2.5H9V6.66667H2.45455V2.5ZM11.4545 2.5H18V6.66667H11.4545V2.5ZM20.4545 2.5H27V6.66667H20.4545V2.5ZM29.4545 2.5H33.5455V11.6667L29.4545 8.33333V2.5ZM8.18182 12.5C8.8328 12.5 9.45713 12.7634 9.91744 13.2322C10.3778 13.7011 10.6364 14.337 10.6364 15C10.6364 15.663 10.3778 16.2989 9.91744 16.7678C9.45713 17.2366 8.8328 17.5 8.18182 17.5C7.53083 17.5 6.90651 17.2366 6.44619 16.7678C5.98588 16.2989 5.72727 15.663 5.72727 15C5.72727 14.337 5.98588 13.7011 6.44619 13.2322C6.90651 12.7634 7.53083 12.5 8.18182 12.5ZM27.8182 12.5C28.4692 12.5 29.0935 12.7634 29.5538 13.2322C30.0141 13.7011 30.2727 14.337 30.2727 15C30.2727 15.663 30.0141 16.2989 29.5538 16.7678C29.0935 17.2366 28.4692 17.5 27.8182 17.5C27.1672 17.5 26.5429 17.2366 26.0826 16.7678C25.6222 16.2989 25.3636 15.663 25.3636 15C25.3636 14.337 25.6222 13.7011 26.0826 13.2322C26.5429 12.7634 27.1672 12.5 27.8182 12.5Z" fill="#262D6B"/>
</svg>
