<svg width="11" height="10" viewBox="0 0 11 10" fill="none" xmlns="http://www.w3.org/2000/svg">
    <path d="M8.72266 -0.000976562C9.25309 -0.000976562 9.7618 0.209737 10.1369 0.58481C10.5119 0.959882 10.7227 1.46859 10.7227 1.99902V5.99902C10.7227 6.52946 10.5119 7.03816 10.1369 7.41324C9.7618 7.78831 9.25309 7.99902 8.72266 7.99902H6.36066L3.97966 9.42752C3.90795 9.47056 3.8266 9.49492 3.74304 9.49837C3.65949 9.50183 3.5764 9.48427 3.50139 9.44731C3.42637 9.41035 3.36182 9.35517 3.31365 9.28681C3.26548 9.21845 3.23523 9.1391 3.22566 9.05602L3.22266 8.99902V7.99902H2.72266C2.20954 7.99902 1.71604 7.80181 1.34425 7.44816C0.972459 7.09452 0.750812 6.6115 0.725156 6.09902L0.722656 5.99902V1.99902C0.722656 1.46859 0.93337 0.959882 1.30844 0.58481C1.68352 0.209737 2.19222 -0.000976562 2.72266 -0.000976562H8.72266ZM6.72266 4.49902H3.72266C3.59005 4.49902 3.46287 4.5517 3.3691 4.64547C3.27533 4.73924 3.22266 4.86642 3.22266 4.99902C3.22266 5.13163 3.27533 5.25881 3.3691 5.35258C3.46287 5.44634 3.59005 5.49902 3.72266 5.49902H6.72266C6.85526 5.49902 6.98244 5.44634 7.07621 5.35258C7.16998 5.25881 7.22266 5.13163 7.22266 4.99902C7.22266 4.86642 7.16998 4.73924 7.07621 4.64547C6.98244 4.5517 6.85526 4.49902 6.72266 4.49902ZM7.72266 2.49902H3.72266C3.59005 2.49902 3.46287 2.5517 3.3691 2.64547C3.27533 2.73924 3.22266 2.86642 3.22266 2.99902C3.22266 3.13163 3.27533 3.25881 3.3691 3.35258C3.46287 3.44634 3.59005 3.49902 3.72266 3.49902H7.72266C7.85526 3.49902 7.98244 3.44634 8.07621 3.35258C8.16998 3.25881 8.22266 3.13163 8.22266 2.99902C8.22266 2.86642 8.16998 2.73924 8.07621 2.64547C7.98244 2.5517 7.85526 2.49902 7.72266 2.49902Z" fill="white"/>
</svg>