<svg width="15" height="16" viewBox="0 0 15 16" fill="none" xmlns="http://www.w3.org/2000/svg">
<path d="M7.5 2.05078C6.8125 2.05078 6.25 2.61328 6.25 3.30078C6.25 3.98828 6.8125 4.55078 7.5 4.55078C8.1875 4.55078 8.75 3.98828 8.75 3.30078C8.75 2.61328 8.1875 2.05078 7.5 2.05078ZM7.5 10.8008C6.8125 10.8008 6.25 11.3633 6.25 12.0508C6.25 12.7383 6.8125 13.3008 7.5 13.3008C8.1875 13.3008 8.75 12.7383 8.75 12.0508C8.75 11.3633 8.1875 10.8008 7.5 10.8008ZM7.5 6.42578C6.8125 6.42578 6.25 6.98828 6.25 7.67578C6.25 8.36328 6.8125 8.92578 7.5 8.92578C8.1875 8.92578 8.75 8.36328 8.75 7.67578C8.75 6.98828 8.1875 6.42578 7.5 6.42578Z" fill="#9D9D9D"/>
</svg>
