<svg width="13" height="13" viewBox="0 0 13 13" fill="none" xmlns="http://www.w3.org/2000/svg">
<path d="M8.43344 0.366211H5.83744C4.66144 0.366211 3.72944 0.366211 3.00077 0.458711C2.2501 0.553711 1.64277 0.753711 1.1641 1.20434C0.684771 1.65496 0.472104 2.22684 0.371438 2.93309C0.273438 3.61934 0.273438 4.49621 0.273438 5.60309V9.25183C0.273438 10.1943 0.886771 11.0018 1.7581 11.3406C1.71344 10.7718 1.71344 9.97496 1.71344 9.31121V6.17996C1.71344 5.37934 1.71344 4.68871 1.7921 4.13621C1.87677 3.54371 2.06744 2.97621 2.55677 2.51559C3.0461 2.05496 3.64944 1.87559 4.27877 1.79559C4.86544 1.72184 5.59877 1.72184 6.4501 1.72184H8.49677C9.34744 1.72184 10.0794 1.72184 10.6668 1.79559C10.4908 1.37452 10.1837 1.01292 9.78527 0.75795C9.38689 0.502978 8.9158 0.366465 8.43344 0.366211Z" fill="#1C1C55"/>
<path d="M2.67383 6.23938C2.67383 4.53563 2.67383 3.68375 3.23649 3.15438C3.79849 2.625 4.70316 2.625 6.51383 2.625H8.43383C10.2438 2.625 11.1492 2.625 11.7118 3.15438C12.2745 3.68375 12.2738 4.53563 12.2738 6.23938V9.25187C12.2738 10.9556 12.2738 11.8075 11.7118 12.3369C11.1492 12.8663 10.2438 12.8663 8.43383 12.8663H6.51383C4.70383 12.8663 3.79849 12.8663 3.23649 12.3369C2.67383 11.8075 2.67383 10.9556 2.67383 9.25187V6.23938Z" fill="#1C1C55"/>
</svg>
