<svg width="13" height="15" viewBox="0 0 13 15" fill="none" xmlns="http://www.w3.org/2000/svg">
    <path d="M2.31868 14.5833H11.652C12.0056 14.5833 12.3448 14.4341 12.5948 14.1684C12.8449 13.9027 12.9854 13.5424 12.9854 13.1667V5.375C12.9854 5.18714 12.9151 5.00697 12.7901 4.87413C12.6651 4.74129 12.4955 4.66667 12.3187 4.66667H10.3187V4.11629C10.3187 2.26825 9.05002 0.613582 7.31869 0.434374C6.85527 0.385437 6.38734 0.440112 5.94501 0.594882C5.50268 0.749653 5.09573 1.00109 4.75036 1.33302C4.40499 1.66495 4.12884 2.07002 3.93968 2.52216C3.75051 2.97431 3.65253 3.46353 3.65202 3.95833V4.66667H1.65202C1.47521 4.66667 1.30564 4.74129 1.18061 4.87413C1.05559 5.00697 0.985352 5.18714 0.985352 5.375V13.1667C0.985352 13.5424 1.12583 13.9027 1.37588 14.1684C1.62592 14.4341 1.96506 14.5833 2.31868 14.5833ZM10.3187 6.08333V7.5H8.98535V6.08333H10.3187ZM4.98535 3.95833C4.98535 2.78675 5.88269 1.83333 6.98535 1.83333C8.08802 1.83333 8.98535 2.78675 8.98535 3.95833V4.66667H4.98535V3.95833ZM3.65202 6.08333H4.98535V7.5H3.65202V6.08333Z" fill="black"/>
    <rect x="2.87109" y="5.16113" width="8.3125" height="3.27441" fill="black"/>
    <rect x="4.79492" y="10.8691" width="5.14355" height="1.22852" rx="0.614258" transform="rotate(-45 4.79492 10.8691)" fill="white"/>
    <rect width="5.14355" height="1.22852" rx="0.614258" transform="matrix(-0.707107 -0.707107 -0.707107 0.707107 9.25977 10.8711)" fill="white"/>
</svg>