<svg width="21" height="21" viewBox="0 0 21 21" fill="none" xmlns="http://www.w3.org/2000/svg">
<path d="M17.3965 8.69775L14.6218 11.3364C13.902 12.022 12.733 12.022 12.0132 11.3364L11.2319 10.5923L13.578 8.35791C13.8651 8.08057 13.8651 7.63721 13.578 7.36377C13.2908 7.09033 12.8212 7.09033 12.5341 7.36377L10.186 9.59815L9.40461 8.854C8.68479 8.16846 8.68479 7.05518 9.40461 6.36963L12.1752 3.72705C12.8991 3.0415 14.064 3.0415 14.7838 3.72705L17.3965 6.21533C18.1163 6.89893 18.1163 8.0083 17.3965 8.69775ZM10.9694 14.8169L8.1967 17.4595C7.47278 18.145 6.30793 18.145 5.58811 17.4595L2.97541 14.9712C2.25559 14.2856 2.25559 13.1743 2.97541 12.4868L5.75012 9.84814C6.46995 9.1626 7.63889 9.1626 8.35872 9.84814L9.14006 10.5923L6.79397 12.8267C6.50686 13.104 6.50686 13.5474 6.79397 13.8208C6.93752 13.9575 7.1262 14.0278 7.31487 14.0278C7.50354 14.0278 7.69426 13.9575 7.83987 13.8208L10.186 11.5845L10.9673 12.3306C11.6892 13.0181 11.6892 14.1313 10.9694 14.8169Z" fill="#5F769D"/>
</svg>
