<svg width="9" height="13" viewBox="0 0 9 13" fill="none" xmlns="http://www.w3.org/2000/svg">
<path d="M4.42025 0.912109C2.16275 0.912109 0.336914 2.73794 0.336914 4.99544C0.336914 8.05794 4.42025 12.5788 4.42025 12.5788C4.42025 12.5788 8.50358 8.05794 8.50358 4.99544C8.50358 2.73794 6.67775 0.912109 4.42025 0.912109ZM4.42025 6.45378C4.03347 6.45378 3.66254 6.30013 3.38905 6.02664C3.11556 5.75315 2.96191 5.38222 2.96191 4.99544C2.96191 4.60867 3.11556 4.23774 3.38905 3.96425C3.66254 3.69075 4.03347 3.53711 4.42025 3.53711C4.80702 3.53711 5.17795 3.69075 5.45145 3.96425C5.72494 4.23774 5.87858 4.60867 5.87858 4.99544C5.87858 5.38222 5.72494 5.75315 5.45145 6.02664C5.17795 6.30013 4.80702 6.45378 4.42025 6.45378Z" fill="#1C1C55"/>
</svg>
