<svg width="86" height="110" viewBox="0 0 86 110" fill="none" xmlns="http://www.w3.org/2000/svg">
<path d="M43 109.75C35.3163 103.196 28.1943 96.0109 21.7083 88.2697C11.975 76.6445 0.416631 59.3313 0.416631 42.8333C0.41241 34.4077 2.90781 26.1701 7.58701 19.1632C12.2662 12.1563 18.9189 6.69503 26.7031 3.47049C34.4873 0.245955 43.0532 -0.59687 51.3166 1.04868C59.58 2.69423 67.1695 6.75419 73.1246 12.7147C77.0895 16.662 80.2321 21.3563 82.3706 26.5262C84.5091 31.696 85.6011 37.2387 85.5833 42.8333C85.5833 59.3313 74.025 76.6445 64.2916 88.2697C57.8056 96.0108 50.6836 103.196 43 109.75ZM43 24.5833C38.1598 24.5833 33.5178 26.5061 30.0953 29.9286C26.6727 33.3512 24.75 37.9931 24.75 42.8333C24.75 47.6735 26.6727 52.3155 30.0953 55.738C33.5178 59.1606 38.1598 61.0833 43 61.0833C47.8402 61.0833 52.4821 59.1606 55.9047 55.738C59.3272 52.3155 61.25 47.6735 61.25 42.8333C61.25 37.9931 59.3272 33.3512 55.9047 29.9286C52.4821 26.5061 47.8402 24.5833 43 24.5833Z" fill="#6C6AE0"/>
</svg>
