<svg width="13" height="3" viewBox="0 0 13 3" fill="none" xmlns="http://www.w3.org/2000/svg">
    <path d="M2.05599 0.166016C1.32266 0.166016 0.722656 0.766016 0.722656 1.49935C0.722656 2.23268 1.32266 2.83268 2.05599 2.83268C2.78932 2.83268 3.38932 2.23268 3.38932 1.49935C3.38932 0.766016 2.78932 0.166016 2.05599 0.166016ZM11.3893 0.166016C10.656 0.166016 10.056 0.766016 10.056 1.49935C10.056 2.23268 10.656 2.83268 11.3893 2.83268C12.1227 2.83268 12.7227 2.23268 12.7227 1.49935C12.7227 0.766016 12.1227 0.166016 11.3893 0.166016ZM6.72266 0.166016C5.98932 0.166016 5.38932 0.766016 5.38932 1.49935C5.38932 2.23268 5.98932 2.83268 6.72266 2.83268C7.45599 2.83268 8.05599 2.23268 8.05599 1.49935C8.05599 0.766016 7.45599 0.166016 6.72266 0.166016Z" fill="#949494"/>
</svg>