<svg width="8" height="8" viewBox="0 0 8 8" fill="none" xmlns="http://www.w3.org/2000/svg">
<path fill-rule="evenodd" clip-rule="evenodd" d="M0.991536 0.255859C0.770523 0.255859 0.558561 0.343657 0.402281 0.499937C0.246 0.656217 0.158203 0.868179 0.158203 1.08919V6.92253C0.158203 7.14354 0.246 7.3555 0.402281 7.51178C0.558561 7.66806 0.770523 7.75586 0.991536 7.75586H6.82487C7.04588 7.75586 7.25784 7.66806 7.41413 7.51178C7.57041 7.3555 7.6582 7.14354 7.6582 6.92253V1.08919C7.6582 0.868179 7.57041 0.656217 7.41413 0.499937C7.25784 0.343657 7.04588 0.255859 6.82487 0.255859H0.991536ZM5.9707 3.08753C6.04889 3.0094 6.09283 2.90341 6.09287 2.79288C6.09291 2.68235 6.04904 2.57633 5.97091 2.49815C5.89278 2.41997 5.7868 2.37602 5.67627 2.37598C5.56574 2.37594 5.45972 2.41981 5.38154 2.49794L3.31904 4.56044L2.43529 3.67669C2.3966 3.63798 2.35067 3.60727 2.30011 3.5863C2.24956 3.56534 2.19537 3.55454 2.14064 3.55452C2.03011 3.55449 1.92409 3.59836 1.84591 3.67648C1.76773 3.75461 1.72378 3.8606 1.72374 3.97113C1.7237 4.08166 1.76757 4.18768 1.8457 4.26586L2.99487 5.41503C3.03743 5.45761 3.08797 5.49139 3.14359 5.51444C3.19921 5.53748 3.25883 5.54934 3.31904 5.54934C3.37924 5.54934 3.43886 5.53748 3.49448 5.51444C3.5501 5.49139 3.60064 5.45761 3.6432 5.41503L5.9707 3.08753Z" fill="#6089FF"/>
</svg>
