<svg width="13" height="15" viewBox="0 0 13 15" fill="none" xmlns="http://www.w3.org/2000/svg">
    <path d="M1.58236 14.5824H10.9157C11.2693 14.5824 11.6085 14.4331 11.8585 14.1674C12.1085 13.9017 12.249 13.5414 12.249 13.1657V5.37402C12.249 5.18616 12.1788 5.00599 12.0538 4.87316C11.9287 4.74032 11.7592 4.66569 11.5824 4.66569H9.58236V4.11531C9.58236 2.26727 8.31369 0.612606 6.58236 0.433397C6.11894 0.38446 5.65101 0.439135 5.20868 0.593906C4.76635 0.748676 4.35941 1.00011 4.01403 1.33204C3.66866 1.66397 3.39251 2.06904 3.20335 2.52119C3.01419 2.97334 2.9162 3.46255 2.91569 3.95736V4.66569H0.91569C0.738879 4.66569 0.56931 4.74032 0.444286 4.87316C0.319261 5.00599 0.249023 5.18616 0.249023 5.37402V13.1657C0.249023 13.5414 0.389499 13.9017 0.639548 14.1674C0.889596 14.4331 1.22873 14.5824 1.58236 14.5824ZM9.58236 6.08236V7.49902H8.24902V6.08236H9.58236ZM4.24902 3.95736C4.24902 2.78577 5.14636 1.83236 6.24902 1.83236C7.35169 1.83236 8.24902 2.78577 8.24902 3.95736V4.66569H4.24902V3.95736ZM2.91569 6.08236H4.24902V7.49902H2.91569V6.08236Z" fill="black"/>
</svg>