<svg width="41" height="41" viewBox="0 0 41 41" fill="none" xmlns="http://www.w3.org/2000/svg">
<circle cx="20.5" cy="20.2871" r="19.918" fill="#F3F9FF"/>
<path fill-rule="evenodd" clip-rule="evenodd" d="M24.7208 29.6815C23.3857 29.6324 19.6018 29.1095 15.639 25.1476C11.6772 21.1848 11.1551 17.4019 11.1051 16.0658C11.0309 14.0297 12.5904 12.052 14.392 11.2796C14.6089 11.186 14.8465 11.1503 15.0814 11.1761C15.3162 11.202 15.5404 11.2885 15.7317 11.4271C17.2152 12.5082 18.2389 14.1437 19.1178 15.4297C19.3112 15.7123 19.3939 16.0561 19.3501 16.3957C19.3064 16.7353 19.1392 17.0469 18.8805 17.2711L17.0715 18.6146C16.9841 18.6777 16.9226 18.7704 16.8984 18.8755C16.8742 18.9805 16.8889 19.0908 16.9399 19.1858C17.3497 19.9303 18.0785 21.0392 18.9129 21.8737C19.7474 22.7082 20.9092 23.4851 21.7056 23.9413C21.8055 23.9974 21.923 24.013 22.0341 23.9851C22.1451 23.9572 22.2413 23.8877 22.3027 23.7911L23.4802 21.9989C23.6967 21.7113 24.0161 21.5186 24.3714 21.4613C24.7268 21.4039 25.0906 21.4862 25.3865 21.691C26.6911 22.5941 28.2135 23.6001 29.328 25.027C29.4779 25.2198 29.5732 25.4493 29.604 25.6915C29.6349 25.9337 29.6001 26.1798 29.5033 26.4039C28.7272 28.2147 26.7634 29.7566 24.7208 29.6815Z" fill="black"/>
</svg>
