<svg width="10" height="10" viewBox="0 0 10 10" fill="none" xmlns="http://www.w3.org/2000/svg">
<g clip-path="url(#clip0_1810_37)">
<path d="M1.15875 4.28376C1.10017 4.22515 1.06725 4.14568 1.06725 4.06282C1.06725 3.97996 1.10017 3.90048 1.15875 3.84188L4.0625 0.937507L4.10625 0.900632C4.16646 0.859282 4.23925 0.84033 4.31198 0.847066C4.38471 0.853802 4.45278 0.885802 4.50437 0.937507L4.54062 0.981257C4.5821 1.04149 4.60118 1.11435 4.59456 1.18718C4.58794 1.26002 4.55603 1.32824 4.50437 1.38001L2.13437 3.75001H9.0625C9.14538 3.75001 9.22487 3.78293 9.28347 3.84154C9.34208 3.90014 9.375 3.97963 9.375 4.06251C9.375 4.14539 9.34208 4.22487 9.28347 4.28348C9.22487 4.34208 9.14538 4.37501 9.0625 4.37501H1.37938C1.29665 4.37499 1.21732 4.34218 1.15875 4.28376ZM0.625 5.93751C0.625 5.85463 0.657924 5.77514 0.716529 5.71654C0.775134 5.65793 0.85462 5.62501 0.9375 5.62501H8.62063C8.68238 5.62502 8.74275 5.64333 8.79411 5.67763C8.84547 5.71193 8.88552 5.76068 8.90919 5.81772C8.93286 5.87477 8.9391 5.93754 8.92712 5.99813C8.91514 6.05872 8.88548 6.11439 8.84188 6.15813L5.9375 9.06251L5.89375 9.09938C5.82944 9.14277 5.75131 9.16074 5.6745 9.1498C5.59769 9.13887 5.52768 9.09981 5.47803 9.0402C5.42838 8.98059 5.40263 8.90467 5.40576 8.82715C5.4089 8.74963 5.4407 8.67604 5.495 8.62063L7.8675 6.25001H0.9375C0.85462 6.25001 0.775134 6.21708 0.716529 6.15848C0.657924 6.09987 0.625 6.02039 0.625 5.93751Z" fill="#7F6CA7"/>
</g>
<defs>
<clipPath id="clip0_1810_37">
<rect width="10" height="10" fill="white"/>
</clipPath>
</defs>
</svg>
