<svg width="12" height="15" viewBox="0 0 12 15" fill="none" xmlns="http://www.w3.org/2000/svg">
<path d="M9.5702 4.63725H6.27804V9.22728C6.27804 9.36161 6.22468 9.49044 6.12969 9.58542C6.03471 9.68041 5.90588 9.73377 5.77155 9.73377C5.63722 9.73377 5.50839 9.68041 5.41341 9.58542C5.31842 9.49044 5.26506 9.36161 5.26506 9.22728V4.63725H1.9729C1.5029 4.63775 1.0523 4.82468 0.719964 5.15702C0.387626 5.48935 0.200698 5.93996 0.200195 6.40995V12.4878C0.200698 12.9578 0.387626 13.4084 0.719964 13.7407C1.0523 14.0731 1.5029 14.26 1.9729 14.2605H9.5702C10.0402 14.26 10.4908 14.0731 10.8231 13.7407C11.1555 13.4084 11.3424 12.9578 11.3429 12.4878V6.40995C11.3424 5.93996 11.1555 5.48935 10.8231 5.15702C10.4908 4.82468 10.0402 4.63775 9.5702 4.63725ZM6.27804 1.8082L7.94596 3.47581C8.04172 3.56679 8.16923 3.61675 8.3013 3.61506C8.43337 3.61337 8.55956 3.56016 8.65295 3.46676C8.74635 3.37336 8.79957 3.24717 8.80126 3.1151C8.80295 2.98303 8.75298 2.85552 8.66201 2.75976L6.12957 0.227331C6.0346 0.132418 5.90582 0.0791016 5.77155 0.0791016C5.63728 0.0791016 5.5085 0.132418 5.41353 0.227331L2.88109 2.75976C2.79012 2.85552 2.74015 2.98303 2.74184 3.1151C2.74353 3.24717 2.79675 3.37336 2.89015 3.46676C2.98354 3.56016 3.10973 3.61337 3.2418 3.61506C3.37387 3.61675 3.50138 3.56679 3.59714 3.47581L5.26506 1.8082V4.63725H6.27804V1.8082Z" fill="#6E7E97"/>
</svg>
