<svg width="13" height="15" viewBox="0 0 13 15" fill="none" xmlns="http://www.w3.org/2000/svg">
    <path d="M1.58236 14.5833H10.9157C11.2693 14.5833 11.6085 14.4341 11.8585 14.1684C12.1085 13.9027 12.249 13.5424 12.249 13.1667V5.375C12.249 5.18714 12.1788 5.00697 12.0538 4.87413C11.9287 4.74129 11.7592 4.66667 11.5824 4.66667H9.58236V4.11629C9.58236 2.26825 8.31369 0.613582 6.58236 0.434374C6.11894 0.385437 5.65101 0.440112 5.20868 0.594882C4.76635 0.749653 4.35941 1.00109 4.01404 1.33302C3.66866 1.66495 3.39251 2.07002 3.20335 2.52216C3.01419 2.97431 2.9162 3.46353 2.91569 3.95833V4.66667H0.91569C0.738879 4.66667 0.56931 4.74129 0.444286 4.87413C0.319261 5.00697 0.249023 5.18714 0.249023 5.375V13.1667C0.249023 13.5424 0.389499 13.9027 0.639548 14.1684C0.889596 14.4341 1.22873 14.5833 1.58236 14.5833ZM9.58236 6.08333V7.5H8.24902V6.08333H9.58236ZM4.24902 3.95833C4.24902 2.78675 5.14636 1.83333 6.24902 1.83333C7.35169 1.83333 8.24902 2.78675 8.24902 3.95833V4.66667H4.24902V3.95833ZM2.91569 6.08333H4.24902V7.5H2.91569V6.08333Z" fill="black"/>
    <rect x="2.13477" y="5.16113" width="8.3125" height="3.27441" fill="black"/>
    <rect x="3.71875" y="9.0127" width="5.14355" height="1.09473" rx="0.547363" fill="white"/>
</svg>