<svg width="19" height="19" viewBox="0 0 19 19" fill="none" xmlns="http://www.w3.org/2000/svg">
<path d="M3.22559 18.219C1.56873 18.219 0.178744 16.8396 0.722551 15.2746C0.77969 15.1101 0.841673 14.9472 0.908457 14.786C1.35929 13.6976 2.02008 12.7086 2.85311 11.8756C3.68614 11.0425 4.67509 10.3818 5.76349 9.93092C5.92472 9.86414 6.08767 9.80215 6.25211 9.74501C7.81718 9.20121 9.19652 10.5912 9.19652 12.248V15.219C9.19652 16.8758 7.85338 18.219 6.19652 18.219L3.22559 18.219Z" fill="#3C8AFF"/>
<path d="M12.1973 9.24805C10.5404 9.24805 9.15042 10.6274 9.69423 12.1925C9.75137 12.3569 9.81335 12.5198 9.88014 12.6811C10.331 13.7695 10.9918 14.7584 11.8248 15.5915C12.6578 16.4245 13.6468 17.0853 14.7352 17.5361C14.8964 17.6029 15.0593 17.6649 15.2238 17.722C16.7889 18.2658 18.1682 16.8758 18.1682 15.219V12.248C18.1682 10.5912 16.8251 9.24805 15.1682 9.24805L12.1973 9.24805Z" fill="#96C0FF"/>
<path d="M6.1975 9.25023C7.85435 9.25023 9.24434 7.87089 8.70053 6.30582C8.64339 6.14138 8.58141 5.97843 8.51463 5.8172C8.0638 4.7288 7.403 3.73985 6.56997 2.90682C5.73694 2.07379 4.748 1.413 3.65959 0.962169C3.49836 0.895385 3.33542 0.833402 3.17097 0.776264C1.6059 0.232455 0.226563 1.62244 0.226563 3.2793L0.226563 6.25023C0.226563 7.90709 1.56971 9.25023 3.22656 9.25023H6.1975Z" fill="#96C0FF"/>
<path d="M15.1682 0.279297C16.8251 0.279297 18.215 1.65864 17.6712 3.22371C17.6141 3.38815 17.5521 3.5511 17.4853 3.71233C17.0345 4.80073 16.3737 5.78968 15.5407 6.62271C14.7076 7.45573 13.7187 8.11653 12.6303 8.56736C12.4691 8.63414 12.3061 8.69613 12.1417 8.75327C10.5766 9.29707 9.19727 7.90709 9.19727 6.25023L9.19727 3.2793C9.19727 1.62244 10.5404 0.279297 12.1973 0.279297H15.1682Z" fill="#3C8AFF"/>
</svg>
