<svg width="18" height="18" viewBox="0 0 18 18" fill="none" xmlns="http://www.w3.org/2000/svg">
<path d="M14.7471 11.8633C16.404 11.8633 17.8098 13.2913 16.9935 14.7332C15.9917 16.5026 14.0921 17.6968 11.9136 17.6968C9.73507 17.6968 7.83547 16.5026 6.83367 14.7332C6.01737 13.2913 7.42322 11.8633 9.08008 11.8633H14.7471Z" fill="#3C8AFF"/>
<path d="M8.9141 6.0293C10.571 6.0293 11.9768 7.45736 11.1605 8.89917C10.1587 10.6686 8.2591 11.8628 6.08059 11.8628C3.90207 11.8628 2.00246 10.6686 1.00066 8.89917C0.184363 7.45736 1.59022 6.0293 3.24707 6.0293H8.9141Z" fill="#96C0FF"/>
<path d="M14.7471 0.197266C16.404 0.197266 17.8098 1.62533 16.9935 3.06714C15.9917 4.83661 14.0921 6.03078 11.9136 6.03078C9.73507 6.03078 7.83547 4.8366 6.83367 3.06714C6.01737 1.62533 7.42322 0.197266 9.08008 0.197266H14.7471Z" fill="#3C8AFF"/>
</svg>
