<svg width="18" height="19" viewBox="0 0 18 19" fill="none" xmlns="http://www.w3.org/2000/svg">
<circle cx="8.83984" cy="10.1104" r="8.77051" fill="#96C0FF"/>
<ellipse cx="8.83984" cy="8.77148" rx="7.4375" ry="6.96875" fill="#3C8AFF"/>
<path d="M16.2773 8.80273C16.2773 10.3302 15.8008 11.6967 14.8552 12.9162C13.9096 14.1352 12.6888 14.9762 11.1922 15.4452C11.0212 15.4737 10.8873 15.4522 10.8129 15.3822C10.773 15.3476 10.7416 15.3052 10.7209 15.2579C10.7003 15.2107 10.6909 15.1598 10.6934 15.1087V13.1887C10.6934 12.6007 10.5223 12.1662 10.1876 11.8932C10.5213 11.8623 10.8521 11.8081 11.1773 11.7312C11.4957 11.651 11.8012 11.5311 12.0858 11.3747C12.3987 11.2062 12.659 11.0097 12.8678 10.7717C13.076 10.5337 13.2471 10.2107 13.381 9.81173C13.5154 9.41223 13.5823 8.95723 13.5823 8.43823C13.5823 7.70273 13.3294 7.07923 12.8152 6.56073C13.0537 6.00673 13.0314 5.39023 12.7408 4.70373C12.5623 4.64723 12.302 4.68273 11.9593 4.80173C11.6167 4.92073 11.3192 5.05423 11.0658 5.20123L10.7008 5.41823C10.0978 5.25723 9.48 5.18023 8.83984 5.18023C8.19969 5.18023 7.58184 5.25723 6.97888 5.41823C6.84523 5.33236 6.70863 5.25065 6.56928 5.17323C6.39769 5.07523 6.12994 4.95623 5.75753 4.82273C5.39309 4.68273 5.10994 4.64723 4.92347 4.69673C4.64084 5.38323 4.61853 6.00023 4.85653 6.55373C4.35025 7.07923 4.08994 7.70273 4.08994 8.43823C4.08994 8.95723 4.15688 9.41223 4.29128 9.80473C4.42463 10.1972 4.59622 10.5197 4.79756 10.7647C5.00581 11.0097 5.26613 11.2132 5.57903 11.3747C5.89194 11.5357 6.19687 11.6547 6.48747 11.7312C6.81285 11.8082 7.14384 11.8623 7.47772 11.8932C7.21688 12.1097 7.06069 12.4252 7.00119 12.8317C6.86205 12.8952 6.71417 12.9399 6.56184 12.9647C6.38 12.9949 6.19556 13.0089 6.01094 13.0067C5.79472 13.0067 5.58647 12.9437 5.37769 12.8107C5.16944 12.6777 4.99094 12.4882 4.84219 12.2432C4.72405 12.0545 4.56405 11.892 4.37309 11.7667C4.18663 11.6407 4.023 11.5702 3.89656 11.5492L3.70319 11.5212C3.56878 11.5212 3.47209 11.5357 3.42003 11.5632C3.36797 11.5912 3.35309 11.6262 3.37541 11.6682C3.39772 11.7102 3.42747 11.7527 3.46466 11.7947C3.50184 11.8367 3.54647 11.8717 3.59109 11.9067L3.65803 11.9487C3.79988 12.0117 3.94119 12.1242 4.0825 12.2922C4.22434 12.4602 4.32103 12.6147 4.38797 12.7547L4.48466 12.9647C4.56647 13.1962 4.70778 13.3852 4.90912 13.5252C5.10994 13.6657 5.32562 13.7567 5.55672 13.7987C5.78728 13.8407 6.01094 13.8617 6.22663 13.8617C6.44231 13.8617 6.62134 13.8547 6.76266 13.8267L6.98631 13.7917C6.98631 14.0227 6.98631 14.2962 6.99322 14.6047C6.99322 14.9132 7.00119 15.0812 7.00119 15.0952C7.00242 15.1467 6.99169 15.1978 6.96976 15.2449C6.94783 15.2921 6.91522 15.3342 6.87422 15.3682C6.79241 15.4382 6.65853 15.4592 6.48747 15.4312C4.99094 14.9617 3.77013 14.1212 2.8245 12.9017C1.87144 11.6967 1.40234 10.3232 1.40234 8.80273C1.40234 7.53473 1.73756 6.36423 2.40003 5.29223C3.0625 4.22023 3.9635 3.37223 5.10994 2.74173C6.24894 2.11823 7.49206 1.80273 8.83984 1.80273C10.1876 1.80273 11.4307 2.11823 12.5697 2.74173C13.7087 3.36523 14.6098 4.21323 15.2797 5.29223C15.9421 6.35723 16.2773 7.53473 16.2773 8.80273Z" fill="#96C0FF"/>
</svg>
