<svg width="13" height="12" viewBox="0 0 13 12" fill="none" xmlns="http://www.w3.org/2000/svg">
<path d="M7.78 0.049986C7.86417 0.0088624 7.95821 -0.00778603 8.05138 0.00193827C8.14456 0.0116626 8.23313 0.0473684 8.307 0.104986L12.807 3.60499C12.865 3.65004 12.9124 3.70733 12.9457 3.77277C12.9791 3.83821 12.9976 3.9102 13 3.98362C13.0024 4.05703 12.9886 4.13007 12.9596 4.19754C12.9305 4.26501 12.887 4.32525 12.832 4.37399L8.332 8.37399C8.25993 8.43798 8.17091 8.47979 8.07563 8.49437C7.98036 8.50895 7.88291 8.49568 7.795 8.45616C7.70709 8.41665 7.63248 8.35257 7.58014 8.27163C7.5278 8.1907 7.49997 8.09637 7.5 7.99999V6.05599C7.264 6.09599 6.956 6.16599 6.596 6.28599C5.723 6.57799 4.542 7.16499 3.354 8.35399C3.28131 8.42695 3.18786 8.47569 3.08643 8.49354C2.98499 8.51139 2.88052 8.49748 2.78729 8.45371C2.69405 8.40994 2.61662 8.33844 2.56555 8.249C2.51449 8.15955 2.49229 8.05652 2.502 7.95399C2.645 6.38299 3.103 5.23699 3.726 4.41099C4.26099 3.69832 4.98757 3.15244 5.821 2.83699C6.35879 2.63367 6.92559 2.51754 7.5 2.49299V0.499986C7.49981 0.406276 7.52596 0.3144 7.57547 0.234835C7.62498 0.155269 7.69585 0.0912183 7.78 0.049986ZM0 3.49999C0 2.83695 0.263392 2.20106 0.732233 1.73222C1.20107 1.26338 1.83696 0.999986 2.5 0.999986H4.5C4.63261 0.999986 4.75979 1.05266 4.85355 1.14643C4.94732 1.2402 5 1.36738 5 1.49999C5 1.63259 4.94732 1.75977 4.85355 1.85354C4.75979 1.94731 4.63261 1.99999 4.5 1.99999H2.5C2.10218 1.99999 1.72064 2.15802 1.43934 2.43933C1.15804 2.72063 1 3.10216 1 3.49999V9.49999C1 9.89781 1.15804 10.2793 1.43934 10.5606C1.72064 10.842 2.10218 11 2.5 11H8.5C8.89782 11 9.27936 10.842 9.56066 10.5606C9.84196 10.2793 10 9.89781 10 9.49999V8.49999C10 8.36738 10.0527 8.2402 10.1464 8.14643C10.2402 8.05266 10.3674 7.99999 10.5 7.99999C10.6326 7.99999 10.7598 8.05266 10.8536 8.14643C10.9473 8.2402 11 8.36738 11 8.49999V9.49999C11 10.163 10.7366 10.7989 10.2678 11.2678C9.79893 11.7366 9.16304 12 8.5 12H2.5C1.83696 12 1.20107 11.7366 0.732233 11.2678C0.263392 10.7989 0 10.163 0 9.49999V3.49999Z" fill="#8F8F8F"/>
</svg>
